# xmcd
#
# Track frame offsets:
#	150
#	58695
#	96757
#	144590
#
# Disc length: 3058 seconds
#
# Revision: 1
# Processed by: cddbd v1.5.1PL0 Copyright (c) Steve Scherf et al.
# Submitted via: CDex 1.50Beta5
#
DISCID=320bf004
DTITLE=ノイマン/チェコ・フィルハーモニー管弦楽団 - マーラー 交響曲全集 Disk1
DYEAR=1996
DGENRE=Classical
TTITLE0=交響曲第1番 ニ長調 《巨人》 第1楽章
TTITLE1=交響曲第1番 ニ長調 《巨人》 第2楽章
TTITLE2=交響曲第1番 ニ長調 《巨人》 第3楽章
TTITLE3=交響曲第1番 ニ長調 《巨人》 第4楽章
EXTD=録音：1962〜82年、プラハ《芸術家の家》
EXTT0=
EXTT1=
EXTT2=
EXTT3=
PLAYORDER=
